# xmcd CD database file
#
# Track frame offsets:
#	150
#	24233
#	48687
#	74524
#	94832
#	120142
#	140951
#	163487
#	182949
#	208882
#
# Disc length: 3074 seconds
#
# Revision: 1
# Processed by: cddbd v1.5.2PL0 Copyright (c) Steve Scherf et al.
# Submitted via: CDex 1.51
#
DISCID=9b0c000a
DTITLE=Summers,Andy - Earth and sky
DYEAR=2004
DGENRE=Jazz
TTITLE0=Above the world
TTITLE1=Now I'm free
TTITLE2=The Diva station
TTITLE3=Return
TTITLE4=Earth and sky
TTITLE5=Parallels
TTITLE6=Circus
TTITLE7=Roseville
TTITLE8=Red stiletto
TTITLE9=I choose you
EXTD=YEAR: 2004
EXTT0=
EXTT1=
EXTT2=
EXTT3=
EXTT4=
EXTT5=
EXTT6=
EXTT7=
EXTT8=
EXTT9=
PLAYORDER=
